<svg width="68" height="68" viewBox="0 0 68 68" fill="none" xmlns="http://www.w3.org/2000/svg">
<path fill-rule="evenodd" clip-rule="evenodd" d="M34 68C52.7777 68 68 52.7777 68 34C68 15.2223 52.7777 0 34 0C15.2223 0 0 15.2223 0 34C0 52.7777 15.2223 68 34 68Z" fill="#E5F7E7"/>
<path fill-rule="evenodd" clip-rule="evenodd" d="M43.3337 29.3333H39.8337V24.6667H23.5003C22.217 24.6667 21.167 25.7167 21.167 27V39.8333H23.5003C23.5003 41.77 25.0637 43.3333 27.0003 43.3333C28.937 43.3333 30.5003 41.77 30.5003 39.8333H37.5003C37.5003 41.77 39.0637 43.3333 41.0003 43.3333C42.937 43.3333 44.5003 41.77 44.5003 39.8333H46.8337V34L43.3337 29.3333ZM27.0003 41.5833C26.032 41.5833 25.2503 40.8017 25.2503 39.8333C25.2503 38.865 26.032 38.0833 27.0003 38.0833C27.9687 38.0833 28.7503 38.865 28.7503 39.8333C28.7503 40.8017 27.9687 41.5833 27.0003 41.5833ZM42.7503 31.0833L45.037 34H39.8337V31.0833H42.7503ZM41.0003 41.5833C40.032 41.5833 39.2503 40.8017 39.2503 39.8333C39.2503 38.865 40.032 38.0833 41.0003 38.0833C41.9687 38.0833 42.7503 38.865 42.7503 39.8333C42.7503 40.8017 41.9687 41.5833 41.0003 41.5833Z" fill="#00B517"/>
</svg>
