<svg width="68" height="68" viewBox="0 0 68 68" fill="none" xmlns="http://www.w3.org/2000/svg">
<path fill-rule="evenodd" clip-rule="evenodd" d="M34 68C52.7777 68 68 52.7777 68 34C68 15.2223 52.7777 0 34 0C15.2223 0 0 15.2223 0 34C0 52.7777 15.2223 68 34 68Z" fill="#FEEAEA"/>
<path fill-rule="evenodd" clip-rule="evenodd" d="M33.9997 22.3333C27.5597 22.3333 22.333 27.56 22.333 34C22.333 40.44 27.5597 45.6667 33.9997 45.6667C40.4397 45.6667 45.6663 40.44 45.6663 34C45.6663 27.56 40.4397 22.3333 33.9997 22.3333ZM35.6447 41.105V43.3333H32.5297V41.0817C30.5347 40.6617 28.843 39.3783 28.7147 37.115H31.0013C31.118 38.34 31.958 39.2967 34.093 39.2967C36.3797 39.2967 36.893 38.1533 36.893 37.4417C36.893 36.4733 36.3797 35.5633 33.778 34.945C30.8847 34.245 28.9013 33.055 28.9013 30.6633C28.9013 28.6567 30.523 27.35 32.5297 26.9183V24.6667H35.6447V26.9417C37.8147 27.4667 38.8997 29.1117 38.9697 30.8967H36.683C36.6247 29.6017 35.9363 28.715 34.093 28.715C32.343 28.715 31.293 29.5083 31.293 30.6283C31.293 31.6083 32.0513 32.25 34.408 32.8567C36.7647 33.4633 39.2847 34.4783 39.2847 37.4183C39.273 39.5533 37.6747 40.72 35.6447 41.105Z" fill="#FA3434"/>
</svg>
