<svg width="68" height="68" viewBox="0 0 68 68" fill="none" xmlns="http://www.w3.org/2000/svg">
<path fill-rule="evenodd" clip-rule="evenodd" d="M34 68C52.7777 68 68 52.7777 68 34C68 15.2223 52.7777 0 34 0C15.2223 0 0 15.2223 0 34C0 52.7777 15.2223 68 34 68Z" fill="#FFF3E7"/>
<path fill-rule="evenodd" clip-rule="evenodd" d="M33.988 22.3333C27.548 22.3333 22.333 27.56 22.333 34C22.333 40.44 27.548 45.6667 33.988 45.6667C40.4397 45.6667 45.6663 40.44 45.6663 34C45.6663 27.56 40.4397 22.3333 33.988 22.3333ZM38.9347 41L33.9997 38.025L29.0647 41L30.3713 35.3883L26.0197 31.62L31.7597 31.13L33.9997 25.8333L36.2397 31.1183L41.9797 31.6083L37.628 35.3767L38.9347 41Z" fill="#FF9017"/>
</svg>
