<svg width="68" height="68" viewBox="0 0 68 68" fill="none" xmlns="http://www.w3.org/2000/svg">
<path fill-rule="evenodd" clip-rule="evenodd" d="M34 68C52.7777 68 68 52.7777 68 34C68 15.2223 52.7777 0 34 0C15.2223 0 0 15.2223 0 34C0 52.7777 15.2223 68 34 68Z" fill="#EAEFFD"/>
<path fill-rule="evenodd" clip-rule="evenodd" d="M33.9997 22.3333C27.5597 22.3333 22.333 27.56 22.333 34C22.333 40.44 27.5597 45.6667 33.9997 45.6667C40.4397 45.6667 45.6663 40.44 45.6663 34C45.6663 27.56 40.4397 22.3333 33.9997 22.3333ZM38.2113 29.73C39.4597 29.73 40.463 30.7333 40.463 31.9817C40.463 33.23 39.4597 34.2333 38.2113 34.2333C36.963 34.2333 35.9597 33.23 35.9597 31.9817C35.948 30.7333 36.963 29.73 38.2113 29.73ZM31.2113 27.8866C32.728 27.8866 33.9647 29.1233 33.9647 30.64C33.9647 32.1566 32.728 33.3933 31.2113 33.3933C29.6947 33.3933 28.458 32.1566 28.458 30.64C28.458 29.1116 29.683 27.8866 31.2113 27.8866ZM31.2113 38.5384V42.9134C28.4113 42.0384 26.1947 39.88 25.2147 37.1267C26.4397 35.82 29.4963 35.155 31.2113 35.155C31.8297 35.155 32.6113 35.2484 33.428 35.4117C31.5147 36.4267 31.2113 37.7684 31.2113 38.5384ZM33.9997 43.3333C33.6847 43.3333 33.3813 43.3216 33.078 43.2866V38.5383C33.078 36.8816 36.508 36.0533 38.2113 36.0533C39.4597 36.0533 41.618 36.5083 42.6913 37.395C41.3263 40.86 37.9547 43.3333 33.9997 43.3333Z" fill="#3167EB"/>
</svg>
