<svg width="16" height="16" viewBox="0 0 16 16" fill="none" xmlns="http://www.w3.org/2000/svg">
<path fill-rule="evenodd" clip-rule="evenodd" d="M5.3335 12C4.60016 12 4.00683 12.6 4.00683 13.3333C4.00683 14.0667 4.60016 14.6667 5.3335 14.6667C6.06683 14.6667 6.66683 14.0667 6.66683 13.3333C6.66683 12.6 6.06683 12 5.3335 12ZM1.3335 1.33333V2.66666H2.66683L5.06683 7.72666L4.16683 9.36C4.06016 9.54666 4.00016 9.76666 4.00016 10C4.00016 10.7333 4.60016 11.3333 5.3335 11.3333H13.3335V10H5.6135C5.52016 10 5.44683 9.92666 5.44683 9.83333L5.46683 9.75333L6.06683 8.66666H11.0335C11.5335 8.66666 11.9735 8.39333 12.2002 7.98L14.5868 3.65333C14.6402 3.55999 14.6668 3.44666 14.6668 3.33333C14.6668 2.96666 14.3668 2.66666 14.0002 2.66666H4.14016L3.5135 1.33333H1.3335ZM12.0002 12C11.2668 12 10.6735 12.6 10.6735 13.3333C10.6735 14.0667 11.2668 14.6667 12.0002 14.6667C12.7335 14.6667 13.3335 14.0667 13.3335 13.3333C13.3335 12.6 12.7335 12 12.0002 12Z" fill="white"/>
</svg>
